<svg width="129"  height="69" viewBox="0 0 129 69" fill="none" xmlns="http://www.w3.org/2000/svg">
<path  d="M16.1315 68.744C14.5955 68.616 13.0595 68.136 11.5235 67.304C9.9875 66.472 8.5795 65.608 7.2995 64.712C6.0195 63.816 5.1555 63.208 4.7075 62.888C3.6195 61.8 2.7875 60.648 2.2115 59.432C1.6355 58.152 1.1555 56.488 0.7715 54.44C0.643501 53.672 0.579501 53 0.579501 52.424C0.579501 50.504 0.899501 48.168 1.5395 45.416C2.2435 42.6 2.9475 40.424 3.6515 38.888C5.0595 35.496 8.1635 30.056 12.9635 22.568C13.2195 22.312 13.3795 22.152 13.4435 22.088C13.5715 21.96 13.6035 21.896 13.5395 21.896C13.5395 21.832 13.5395 21.8 13.5395 21.8C13.5395 21.352 14.4675 19.368 16.3235 15.848C17.4115 14.696 17.9555 13.704 17.9555 12.872C17.9555 12.424 17.8595 12.072 17.6675 11.816C17.4755 11.56 17.7315 11.016 18.4355 10.184C19.1395 9.288 20.0995 8.328 21.3155 7.304C22.5955 6.216 23.9395 5.288 25.3475 4.51999C27.0755 3.176 28.7715 2.504 30.4355 2.504C30.9475 2.504 31.3635 2.6 31.6835 2.792C32.0675 2.92 32.2915 3.144 32.3555 3.464C32.3555 3.848 33.6355 3.72 36.1955 3.08C37.3475 2.824 38.1795 2.664 38.6915 2.6C38.9475 2.28 39.5875 2.024 40.6115 1.832C41.6995 1.57599 43.2035 1.32 45.1235 1.064C46.1475 1.128 47.3955 1.128 48.8675 1.064C50.4035 0.999996 51.3955 0.935995 51.8435 0.871996C52.2915 0.743998 52.9315 1.032 53.7635 1.736C54.6595 2.44 55.3635 3.336 55.8755 4.424C56.0035 4.808 56.0675 5.096 56.0675 5.288C56.0675 6.248 55.4595 7.08 54.2435 7.784C53.0275 8.424 51.2675 8.872 48.9635 9.128C46.5955 9.448 44.5155 9.768 42.7235 10.088C40.9315 10.408 38.6915 10.856 36.0035 11.432L33.9875 11.816C32.0035 12.136 30.5315 12.552 29.5715 13.064C28.6115 13.576 27.5875 14.696 26.4995 16.424C26.0515 16.744 25.4755 17.576 24.7715 18.92C24.0675 20.2 23.3635 21.544 22.6595 22.952L20.7395 25.544C19.2675 27.528 18.3395 28.84 17.9555 29.48C17.6355 30.056 17.5715 30.472 17.7635 30.728C18.0195 30.792 18.4675 30.888 19.1075 31.016C19.8115 31.144 20.3875 31.24 20.8355 31.304C21.4115 30.984 22.2115 30.76 23.2355 30.632C24.2595 30.504 24.9955 30.376 25.4435 30.248L27.5555 29.672C31.5235 28.648 34.4355 27.912 36.2915 27.464C38.1475 27.016 39.5235 26.728 40.4195 26.6C40.7395 26.344 41.1235 26.216 41.5715 26.216C42.2755 26.216 42.9475 26.568 43.5875 27.272C44.2915 27.912 44.8035 28.68 45.1235 29.576C45.3795 30.472 45.5075 31.048 45.5075 31.304C45.5075 32.392 44.8675 33.224 43.5875 33.8C42.3075 34.312 39.7475 35.016 35.9075 35.912C30.3395 37.256 26.8515 38.12 25.4435 38.504C21.2835 39.72 18.2115 40.328 16.2275 40.328C14.5635 40.328 13.7635 39.784 13.8275 38.696C13.2515 38.376 12.5795 38.952 11.8115 40.424C11.0435 41.896 10.3715 43.72 9.7955 45.896C9.2835 48.072 9.0275 49.96 9.0275 51.56C9.0275 52.392 9.1235 53.096 9.3155 53.672C9.8915 55.208 10.7555 56.52 11.9075 57.608C13.0595 58.632 14.6595 59.432 16.7075 60.008C17.1555 60.072 17.6995 60.136 18.3395 60.2C19.0435 60.264 19.8435 60.296 20.7395 60.296C22.0195 60.296 23.2995 60.04 24.5795 59.528C29.5715 58.696 33.0915 57.544 35.1395 56.072C35.4595 55.944 35.7475 55.72 36.0035 55.4C36.3235 55.08 36.6115 54.92 36.8675 54.92L36.7715 55.112C36.7715 55.176 36.9635 55.048 37.3475 54.728C37.7315 54.344 38.1475 53.96 38.5955 53.576C40.3875 52.04 42.3715 51.272 44.5475 51.272C45.3155 51.272 45.9555 51.4 46.4675 51.656C47.0435 51.848 47.3635 52.04 47.4275 52.232C47.8115 52.872 47.6195 53.896 46.8515 55.304C46.0835 56.712 44.8675 58.184 43.2035 59.72C41.6035 61.256 39.8115 62.6 37.8275 63.752C34.6915 65.416 31.1715 66.632 27.2675 67.4C23.4275 68.232 19.7155 68.68 16.1315 68.744ZM58.1008 66.056C57.9088 66.12 57.6528 66.152 57.3328 66.152C55.9888 66.152 54.8688 65.384 53.9728 63.848C53.0768 62.312 52.6288 60.36 52.6288 57.992C52.6288 56.712 52.7568 55.464 53.0128 54.248C53.7168 52.392 54.0688 51.048 54.0688 50.216C54.2608 49 54.9008 46.824 55.9888 43.688C57.1408 40.488 57.8768 38.568 58.1968 37.928C58.4528 37.928 58.6768 37.736 58.8688 37.352C59.0608 36.904 59.1568 36.424 59.1568 35.912C59.1568 35.336 59.2528 34.76 59.4448 34.184C59.7008 33.544 59.9568 33.096 60.2128 32.84C60.2128 32.648 60.2768 32.296 60.4048 31.784C60.5968 31.272 60.6928 30.92 60.6928 30.728C60.6928 30.6 60.7568 30.376 60.8848 30.056C61.0768 29.672 61.1728 29.384 61.1728 29.192C62.1968 27.208 63.9888 22.76 66.5488 15.848C69.1088 8.872 70.3888 5 70.3888 4.232C70.3888 3.72 70.5808 3.24 70.9648 2.792C71.3488 2.344 71.7968 2.12 72.3088 2.12C72.5008 1.928 72.9168 1.8 73.5568 1.736C74.1968 1.608 74.7088 1.544 75.0928 1.544L76.6288 3.08C77.3328 3.72 77.8768 4.296 78.2608 4.808C78.6448 5.32 78.8368 5.928 78.8368 6.632C78.8368 7.784 78.6128 8.936 78.1648 10.088C77.7808 11.176 76.5968 13.8 74.6128 17.96C74.4848 18.28 73.9728 19.432 73.0768 21.416C72.4368 22.696 72.1168 23.432 72.1168 23.624C72.1168 23.816 71.9888 24.232 71.7328 24.872C71.4768 25.448 71.2528 26.056 71.0608 26.696C70.5488 27.72 69.7168 29.544 68.5648 32.168C67.4768 34.728 66.9328 36.136 66.9328 36.392C66.9328 37.096 66.7728 37.608 66.4528 37.928C66.2608 37.928 66.1328 38.088 66.0688 38.408C66.0048 38.664 65.9728 38.856 65.9728 38.984C65.9728 39.624 65.4608 41.32 64.4368 44.072L63.5728 46.856C62.3568 51.016 61.4928 54.056 60.9808 55.976C60.5328 57.896 60.3088 59.528 60.3088 60.872C60.3088 62.28 60.0848 63.432 59.6368 64.328C59.1888 65.224 58.6768 65.8 58.1008 66.056ZM81.7873 24.872C81.1473 24.424 80.6353 23.848 80.2513 23.144C79.8673 22.44 79.6433 21.768 79.5793 21.128C79.5153 20.488 79.5793 20.104 79.7713 19.976C80.1553 19.528 80.5393 18.92 80.9233 18.152C81.3073 17.384 81.5953 16.84 81.7873 16.52C82.2993 15.368 82.7153 14.536 83.0353 14.024C83.4833 13.128 83.8993 12.648 84.2833 12.584C84.7953 12.328 85.2113 12.2 85.5312 12.2C86.3633 12.2 87.2593 12.488 88.2193 13.064C89.2433 13.64 90.0113 14.312 90.5233 15.08C90.9713 16.104 91.1953 17 91.1953 17.768C91.1953 19.304 90.4593 21 88.9873 22.856C88.3473 23.688 87.5793 24.328 86.6833 24.776C85.7873 25.224 84.8913 25.448 83.9953 25.448C83.0993 25.448 82.3633 25.256 81.7873 24.872ZM71.4193 63.368C70.5233 62.472 70.0753 60.872 70.0753 58.568C70.0753 57.352 70.2353 56.424 70.5553 55.784C70.5553 55.464 70.6193 55.08 70.7473 54.632C70.8753 54.184 70.9393 53.896 70.9393 53.768C70.8753 53.384 71.1313 52.328 71.7073 50.6C72.4753 48.872 73.4353 46.216 74.5873 42.632C75.8033 39.048 76.6353 36.488 77.0833 34.952C77.0833 34.632 77.2113 34.376 77.4673 34.184C77.7233 33.928 78.1073 33.768 78.6193 33.704C79.3233 33.448 80.2193 33.768 81.3073 34.664C82.3953 35.496 83.2913 36.456 83.9953 37.544C84.3793 37.928 84.5713 38.44 84.5713 39.08C84.5713 40.04 84.1553 41.384 83.3233 43.112C83.0033 43.816 82.6833 44.68 82.3633 45.704C82.1073 46.728 81.8833 47.688 81.6913 48.584C80.9233 50.312 80.3153 51.912 79.8673 53.384C79.6753 54.216 79.5473 54.856 79.4833 55.304C79.0353 57.672 78.6193 59.208 78.2353 59.912C77.8513 61.512 77.3073 62.728 76.6033 63.56C75.8993 64.328 75.0993 64.712 74.2032 64.712C73.1153 64.712 72.1873 64.264 71.4193 63.368ZM120.791 63.464C119.383 64.104 118.167 64.424 117.143 64.424C115.287 64.424 113.783 63.688 112.631 62.216C111.479 60.744 110.903 58.6 110.903 55.784C110.903 52.968 111.447 49.928 112.535 46.664C112.727 46.216 112.983 45.672 113.303 45.032C113.623 44.392 113.687 44.072 113.495 44.072C113.175 44.072 112.599 44.488 111.767 45.32C108.631 48.136 106.007 51.08 103.895 54.152C101.847 57.16 100.823 59.496 100.823 61.16C100.823 61.864 100.535 62.408 99.959 62.792C99.447 63.176 98.839 63.368 98.135 63.368C97.687 63.368 97.271 63.272 96.887 63.08C95.479 62.248 94.327 61.096 93.431 59.624C92.535 58.088 92.183 56.232 92.375 54.056C92.631 49.64 93.079 45.768 93.719 42.44C94.423 39.048 95.735 34.248 97.655 28.04C97.719 27.848 98.327 26.216 99.479 23.144C101.463 17.512 102.583 14.44 102.839 13.928C103.287 13.48 103.927 12.104 104.759 9.8C105.655 7.432 106.103 5.992 106.103 5.48C106.103 4.968 106.231 4.488 106.487 4.04C106.807 3.528 106.999 3.208 107.063 3.08C107.767 1.48 108.375 0.679998 108.887 0.679998C109.463 0.679998 110.359 1.064 111.575 1.832C112.855 2.536 113.591 3.208 113.783 3.848C114.295 4.872 114.551 5.832 114.551 6.72799C114.551 7.688 114.295 8.84 113.783 10.184C113.271 11.464 112.407 13.256 111.191 15.56C109.335 19.272 107.607 23.528 106.007 28.328C105.239 30.376 104.311 33.288 103.223 37.064C102.135 40.84 101.591 43.08 101.591 43.784C101.591 44.232 101.815 44.456 102.263 44.456C102.775 44.456 103.319 44.072 103.895 43.304C104.087 42.92 104.503 42.44 105.143 41.864C105.783 41.288 106.295 40.776 106.679 40.328C108.023 38.664 109.559 37 111.287 35.336C113.015 33.672 114.327 32.84 115.223 32.84C117.527 32.84 119.255 34.28 120.407 37.16C120.663 37.416 120.855 37.672 120.983 37.928C121.111 38.184 121.239 38.376 121.367 38.504C121.687 38.824 121.847 39.624 121.847 40.904C121.847 43.08 121.335 45.704 120.311 48.776C119.607 51.592 119.255 53.512 119.255 54.536C119.255 55.368 119.479 55.784 119.927 55.784C120.119 55.656 120.503 55.432 121.079 55.112C121.655 54.792 122.327 54.408 123.095 53.96C124.503 53.128 125.623 52.712 126.455 52.712C127.095 52.712 127.575 52.904 127.895 53.288C128.215 53.608 128.375 54.024 128.375 54.536C128.375 54.984 128.151 55.656 127.703 56.552C127.319 57.448 127.127 57.96 127.127 58.088V58.568C127.127 58.824 126.263 59.656 124.535 61.064C122.807 62.472 121.559 63.272 120.791 63.464Z" fill="#5397b5"/>
</svg>
